
<svg xmlns="http://www.w3.org/2000/svg" aria-hidden="true" style="position:absolute;width:0;height:0;overflow:hidden">
  <defs>
    <symbol id="reviews" viewBox="0 0 32 32">
      <path fill="rgb(81, 29, 131)" d="m18.667 30-3.733-4.667H8.001A1.333 1.333 0 0 1 6.668 24V9.47c0-.736.597-1.333 1.333-1.333h21.333c.736 0 1.333.597 1.333 1.333V24c0 .736-.597 1.333-1.333 1.333h-6.933L18.668 30zm2.451-7.333H28V10.804H9.333v11.863h6.882l2.452 3.065 2.452-3.065zm-18.451-20h22.667v2.667H4.001v14.667H1.334v-16c0-.736.597-1.333 1.333-1.333z"/>
    </symbol>
    <symbol id="cast" viewBox="0 0 32 32">
      <path d="M16 14.667a6.667 6.667 0 0 1 6.667 6.667v8H20v-8a4 4 0 0 0-3.765-3.993L16 17.334a4 4 0 0 0-3.993 3.765l-.007.235v8H9.333v-8A6.667 6.667 0 0 1 16 14.667zm-8.667 4c.372 0 .733.043 1.08.126a7.941 7.941 0 0 0-.402 2.1l-.012.441.001.114a2.022 2.022 0 0 0-.475-.105l-.193-.009a2 2 0 0 0-1.991 1.807l-.009.193v6H2.665v-6a4.667 4.667 0 0 1 4.667-4.667zm17.334 0a4.667 4.667 0 0 1 4.667 4.667v6h-2.667v-6a2 2 0 0 0-1.807-1.991l-.193-.009c-.234 0-.458.04-.666.114v-.114c0-.888-.145-1.741-.411-2.539a4.552 4.552 0 0 1 1.078-.127zm-17.334-8a3.333 3.333 0 1 1 0 6.665 3.333 3.333 0 0 1 0-6.665zm17.334 0a3.333 3.333 0 1 1 0 6.665 3.333 3.333 0 0 1 0-6.665zM7.333 13.333a.667.667 0 1 0 .001 1.335.667.667 0 0 0-.001-1.335zm17.334 0a.667.667 0 1 0 .001 1.335.667.667 0 0 0-.001-1.335zM16 2.667a5.333 5.333 0 1 1 0 10.667 5.333 5.333 0 0 1 0-10.667zm0 2.666a2.667 2.667 0 1 0 0 5.334 2.667 2.667 0 0 0 0-5.334z"/>
    </symbol>
    <symbol id="movie" viewBox="0 0 32 32">
      <path fill="rgb(81, 29, 131)" d="M16 26.667h10.667v2.667H16c-7.364 0-13.333-5.97-13.333-13.333S8.637 2.668 16 2.668c7.364 0 13.333 5.97 13.333 13.333 0 3.002-.992 5.772-2.666 8h-3.612a10.64 10.64 0 0 0 3.611-8c0-5.891-4.776-10.667-10.667-10.667S5.332 10.11 5.332 16.001s4.776 10.667 10.667 10.667zm0-13.334a2.667 2.667 0 1 1 0-5.334 2.667 2.667 0 0 1 0 5.334zm-5.333 5.334a2.667 2.667 0 1 1 0-5.334 2.667 2.667 0 0 1 0 5.334zm10.666 0a2.667 2.667 0 1 1 0-5.334 2.667 2.667 0 0 1 0 5.334zM16 24a2.667 2.667 0 1 1 0-5.334A2.667 2.667 0 0 1 16 24z"/>
    </symbol>
    <symbol id="home" viewBox="0 0 32 32">
      <path d="M26.667 26.667c0 .736-.597 1.333-1.333 1.333H6.667a1.333 1.333 0 0 1-1.333-1.333v-12h-4l13.77-12.518a1.334 1.334 0 0 1 1.794 0l13.77 12.518h-4v12zM24 25.333V12.21l-8-7.273-8 7.273v13.123h16zm-8-2.666-4.478-4.478a3 3 0 1 1 4.243-4.243l.236.236.236-.236a3 3 0 1 1 4.243 4.243l-4.478 4.478z"/>
    </symbol>
  </defs>
</svg>